<mxfile host="app.diagrams.net" agent="Mozilla/5.0 (Windows NT 10.0; Win64; x64) AppleWebKit/537.36 (KHTML, like Gecko) Chrome/134.0.0.0 Safari/537.36 Edg/134.0.0.0" version="26.1.1">
  <diagram name="第 1 页" id="XuyaThHmIciKX3uBg7B0">
    <mxGraphModel dx="661" dy="395" grid="1" gridSize="10" guides="1" tooltips="1" connect="1" arrows="1" fold="1" page="1" pageScale="1" pageWidth="827" pageHeight="1169" math="0" shadow="0">
      <root>
        <mxCell id="0" />
        <mxCell id="1" parent="0" />
        <mxCell id="wruX1AdouDGclrCkDgOv-1" style="rounded=0;orthogonalLoop=1;jettySize=auto;html=1;exitX=0.5;exitY=0;exitDx=0;exitDy=0;entryX=0;entryY=1;entryDx=0;entryDy=0;endArrow=none;startFill=0;" edge="1" parent="1" source="wruX1AdouDGclrCkDgOv-3" target="wruX1AdouDGclrCkDgOv-14">
          <mxGeometry relative="1" as="geometry" />
        </mxCell>
        <mxCell id="wruX1AdouDGclrCkDgOv-2" style="edgeStyle=none;rounded=0;orthogonalLoop=1;jettySize=auto;html=1;exitX=1;exitY=1;exitDx=0;exitDy=0;entryX=0;entryY=0;entryDx=0;entryDy=0;endArrow=none;startFill=0;" edge="1" parent="1" source="wruX1AdouDGclrCkDgOv-3" target="wruX1AdouDGclrCkDgOv-8">
          <mxGeometry relative="1" as="geometry" />
        </mxCell>
        <mxCell id="wruX1AdouDGclrCkDgOv-3" value="" style="ellipse;whiteSpace=wrap;html=1;aspect=fixed;fillColor=#f8cecc;strokeColor=#b85450;" vertex="1" parent="1">
          <mxGeometry x="143" y="184" width="20" height="20" as="geometry" />
        </mxCell>
        <mxCell id="wruX1AdouDGclrCkDgOv-4" style="edgeStyle=none;rounded=0;orthogonalLoop=1;jettySize=auto;html=1;exitX=1;exitY=1;exitDx=0;exitDy=0;endArrow=none;startFill=0;" edge="1" parent="1" source="wruX1AdouDGclrCkDgOv-5" target="wruX1AdouDGclrCkDgOv-9">
          <mxGeometry relative="1" as="geometry" />
        </mxCell>
        <mxCell id="wruX1AdouDGclrCkDgOv-5" value="" style="ellipse;whiteSpace=wrap;html=1;aspect=fixed;fillColor=#dae8fc;strokeColor=#6c8ebf;" vertex="1" parent="1">
          <mxGeometry x="203" y="184" width="20" height="20" as="geometry" />
        </mxCell>
        <mxCell id="wruX1AdouDGclrCkDgOv-6" style="edgeStyle=none;rounded=0;orthogonalLoop=1;jettySize=auto;html=1;exitX=0.5;exitY=1;exitDx=0;exitDy=0;entryX=1;entryY=0;entryDx=0;entryDy=0;endArrow=none;startFill=0;" edge="1" parent="1" source="wruX1AdouDGclrCkDgOv-8" target="wruX1AdouDGclrCkDgOv-10">
          <mxGeometry relative="1" as="geometry" />
        </mxCell>
        <mxCell id="wruX1AdouDGclrCkDgOv-7" style="edgeStyle=none;rounded=0;orthogonalLoop=1;jettySize=auto;html=1;exitX=1;exitY=1;exitDx=0;exitDy=0;endArrow=none;startFill=0;" edge="1" parent="1" source="wruX1AdouDGclrCkDgOv-8" target="wruX1AdouDGclrCkDgOv-11">
          <mxGeometry relative="1" as="geometry" />
        </mxCell>
        <mxCell id="wruX1AdouDGclrCkDgOv-8" value="" style="ellipse;whiteSpace=wrap;html=1;aspect=fixed;fillColor=#f8cecc;strokeColor=#b85450;" vertex="1" parent="1">
          <mxGeometry x="173" y="214" width="20" height="20" as="geometry" />
        </mxCell>
        <mxCell id="wruX1AdouDGclrCkDgOv-9" value="" style="ellipse;whiteSpace=wrap;html=1;aspect=fixed;fillColor=#dae8fc;strokeColor=#6c8ebf;" vertex="1" parent="1">
          <mxGeometry x="213" y="223" width="20" height="20" as="geometry" />
        </mxCell>
        <mxCell id="wruX1AdouDGclrCkDgOv-10" value="" style="ellipse;whiteSpace=wrap;html=1;aspect=fixed;fillColor=#dae8fc;strokeColor=#6c8ebf;" vertex="1" parent="1">
          <mxGeometry x="143" y="258" width="20" height="20" as="geometry" />
        </mxCell>
        <mxCell id="wruX1AdouDGclrCkDgOv-11" value="" style="ellipse;whiteSpace=wrap;html=1;aspect=fixed;fillColor=#dae8fc;strokeColor=#6c8ebf;" vertex="1" parent="1">
          <mxGeometry x="193" y="260" width="20" height="20" as="geometry" />
        </mxCell>
        <mxCell id="wruX1AdouDGclrCkDgOv-12" value="" style="ellipse;whiteSpace=wrap;html=1;aspect=fixed;fillColor=#dae8fc;strokeColor=#6c8ebf;" vertex="1" parent="1">
          <mxGeometry x="123" y="223" width="20" height="20" as="geometry" />
        </mxCell>
        <mxCell id="wruX1AdouDGclrCkDgOv-13" style="rounded=0;orthogonalLoop=1;jettySize=auto;html=1;exitX=1;exitY=0.5;exitDx=0;exitDy=0;entryX=0.5;entryY=0;entryDx=0;entryDy=0;endArrow=none;startFill=0;" edge="1" parent="1" source="wruX1AdouDGclrCkDgOv-14" target="wruX1AdouDGclrCkDgOv-5">
          <mxGeometry relative="1" as="geometry" />
        </mxCell>
        <mxCell id="wruX1AdouDGclrCkDgOv-14" value="" style="ellipse;whiteSpace=wrap;html=1;aspect=fixed;fillColor=#f8cecc;strokeColor=#b85450;" vertex="1" parent="1">
          <mxGeometry x="173" y="154" width="20" height="20" as="geometry" />
        </mxCell>
        <mxCell id="wruX1AdouDGclrCkDgOv-15" style="edgeStyle=none;rounded=0;orthogonalLoop=1;jettySize=auto;html=1;exitX=0;exitY=1;exitDx=0;exitDy=0;entryX=0.83;entryY=0.072;entryDx=0;entryDy=0;entryPerimeter=0;endArrow=none;startFill=0;" edge="1" parent="1" source="wruX1AdouDGclrCkDgOv-5" target="wruX1AdouDGclrCkDgOv-8">
          <mxGeometry relative="1" as="geometry" />
        </mxCell>
        <mxCell id="wruX1AdouDGclrCkDgOv-16" style="edgeStyle=none;rounded=0;orthogonalLoop=1;jettySize=auto;html=1;exitX=1;exitY=0;exitDx=0;exitDy=0;entryX=0.294;entryY=0.932;entryDx=0;entryDy=0;entryPerimeter=0;endArrow=none;startFill=0;" edge="1" parent="1" source="wruX1AdouDGclrCkDgOv-11" target="wruX1AdouDGclrCkDgOv-9">
          <mxGeometry relative="1" as="geometry" />
        </mxCell>
        <mxCell id="wruX1AdouDGclrCkDgOv-17" style="edgeStyle=none;rounded=0;orthogonalLoop=1;jettySize=auto;html=1;exitX=1;exitY=0;exitDx=0;exitDy=0;entryX=0.279;entryY=1.022;entryDx=0;entryDy=0;entryPerimeter=0;endArrow=none;startFill=0;" edge="1" parent="1" source="wruX1AdouDGclrCkDgOv-12" target="wruX1AdouDGclrCkDgOv-3">
          <mxGeometry relative="1" as="geometry" />
        </mxCell>
        <mxCell id="wruX1AdouDGclrCkDgOv-18" style="edgeStyle=none;rounded=0;orthogonalLoop=1;jettySize=auto;html=1;exitX=1;exitY=1;exitDx=0;exitDy=0;endArrow=none;startFill=0;entryX=0.5;entryY=0;entryDx=0;entryDy=0;" edge="1" parent="1" source="wruX1AdouDGclrCkDgOv-12" target="wruX1AdouDGclrCkDgOv-10">
          <mxGeometry relative="1" as="geometry">
            <mxPoint x="150" y="260" as="targetPoint" />
          </mxGeometry>
        </mxCell>
        <mxCell id="wruX1AdouDGclrCkDgOv-19" value="消息生成" style="text;html=1;align=center;verticalAlign=middle;resizable=0;points=[];autosize=1;strokeColor=none;fillColor=none;fontSize=10;" vertex="1" parent="1">
          <mxGeometry x="147" y="281" width="60" height="30" as="geometry" />
        </mxCell>
        <mxCell id="wruX1AdouDGclrCkDgOv-20" value="" style="rounded=0;whiteSpace=wrap;html=1;fillColor=#f5f5f5;fontColor=#333333;strokeColor=#666666;" vertex="1" parent="1">
          <mxGeometry x="173" y="143" width="7" height="7" as="geometry" />
        </mxCell>
        <mxCell id="wruX1AdouDGclrCkDgOv-21" value="" style="rounded=0;whiteSpace=wrap;html=1;fillColor=#f5f5f5;fontColor=#333333;strokeColor=#666666;" vertex="1" parent="1">
          <mxGeometry x="180" y="143" width="7" height="7" as="geometry" />
        </mxCell>
        <mxCell id="wruX1AdouDGclrCkDgOv-22" value="" style="rounded=0;whiteSpace=wrap;html=1;fillColor=#f5f5f5;fontColor=#333333;strokeColor=#666666;" vertex="1" parent="1">
          <mxGeometry x="187" y="143" width="7" height="7" as="geometry" />
        </mxCell>
        <mxCell id="wruX1AdouDGclrCkDgOv-23" value="" style="rounded=0;whiteSpace=wrap;html=1;fillColor=#f5f5f5;fontColor=#333333;strokeColor=#666666;" vertex="1" parent="1">
          <mxGeometry x="215" y="175" width="7" height="7" as="geometry" />
        </mxCell>
        <mxCell id="wruX1AdouDGclrCkDgOv-24" value="" style="rounded=0;whiteSpace=wrap;html=1;fillColor=#f5f5f5;fontColor=#333333;strokeColor=#666666;" vertex="1" parent="1">
          <mxGeometry x="222" y="175" width="7" height="7" as="geometry" />
        </mxCell>
        <mxCell id="wruX1AdouDGclrCkDgOv-25" value="" style="rounded=0;whiteSpace=wrap;html=1;fillColor=#f5f5f5;fontColor=#333333;strokeColor=#666666;" vertex="1" parent="1">
          <mxGeometry x="229" y="175" width="7" height="7" as="geometry" />
        </mxCell>
        <mxCell id="wruX1AdouDGclrCkDgOv-26" value="" style="rounded=0;whiteSpace=wrap;html=1;fillColor=#f5f5f5;fontColor=#333333;strokeColor=#666666;" vertex="1" parent="1">
          <mxGeometry x="227" y="244" width="7" height="7" as="geometry" />
        </mxCell>
        <mxCell id="wruX1AdouDGclrCkDgOv-27" value="" style="rounded=0;whiteSpace=wrap;html=1;fillColor=#f5f5f5;fontColor=#333333;strokeColor=#666666;" vertex="1" parent="1">
          <mxGeometry x="234" y="244" width="7" height="7" as="geometry" />
        </mxCell>
        <mxCell id="wruX1AdouDGclrCkDgOv-28" value="" style="rounded=0;whiteSpace=wrap;html=1;fillColor=#f5f5f5;fontColor=#333333;strokeColor=#666666;" vertex="1" parent="1">
          <mxGeometry x="241" y="244" width="7" height="7" as="geometry" />
        </mxCell>
        <mxCell id="wruX1AdouDGclrCkDgOv-29" value="" style="rounded=0;whiteSpace=wrap;html=1;fillColor=#f5f5f5;fontColor=#333333;strokeColor=#666666;" vertex="1" parent="1">
          <mxGeometry x="215" y="278" width="7" height="7" as="geometry" />
        </mxCell>
        <mxCell id="wruX1AdouDGclrCkDgOv-30" value="" style="rounded=0;whiteSpace=wrap;html=1;fillColor=#f5f5f5;fontColor=#333333;strokeColor=#666666;" vertex="1" parent="1">
          <mxGeometry x="222" y="278" width="7" height="7" as="geometry" />
        </mxCell>
        <mxCell id="wruX1AdouDGclrCkDgOv-31" value="" style="rounded=0;whiteSpace=wrap;html=1;fillColor=#f5f5f5;fontColor=#333333;strokeColor=#666666;" vertex="1" parent="1">
          <mxGeometry x="229" y="278" width="7" height="7" as="geometry" />
        </mxCell>
        <mxCell id="wruX1AdouDGclrCkDgOv-32" value="" style="rounded=0;whiteSpace=wrap;html=1;fillColor=#f5f5f5;fontColor=#333333;strokeColor=#666666;" vertex="1" parent="1">
          <mxGeometry x="123" y="177" width="7" height="7" as="geometry" />
        </mxCell>
        <mxCell id="wruX1AdouDGclrCkDgOv-33" value="" style="rounded=0;whiteSpace=wrap;html=1;fillColor=#f5f5f5;fontColor=#333333;strokeColor=#666666;" vertex="1" parent="1">
          <mxGeometry x="130" y="177" width="7" height="7" as="geometry" />
        </mxCell>
        <mxCell id="wruX1AdouDGclrCkDgOv-34" value="" style="rounded=0;whiteSpace=wrap;html=1;fillColor=#f5f5f5;fontColor=#333333;strokeColor=#666666;" vertex="1" parent="1">
          <mxGeometry x="137" y="177" width="7" height="7" as="geometry" />
        </mxCell>
        <mxCell id="wruX1AdouDGclrCkDgOv-35" value="" style="rounded=0;whiteSpace=wrap;html=1;fillColor=#f5f5f5;fontColor=#333333;strokeColor=#666666;" vertex="1" parent="1">
          <mxGeometry x="172" y="204" width="7" height="7" as="geometry" />
        </mxCell>
        <mxCell id="wruX1AdouDGclrCkDgOv-36" value="" style="rounded=0;whiteSpace=wrap;html=1;fillColor=#f5f5f5;fontColor=#333333;strokeColor=#666666;" vertex="1" parent="1">
          <mxGeometry x="179" y="204" width="7" height="7" as="geometry" />
        </mxCell>
        <mxCell id="wruX1AdouDGclrCkDgOv-37" value="" style="rounded=0;whiteSpace=wrap;html=1;fillColor=#f5f5f5;fontColor=#333333;strokeColor=#666666;" vertex="1" parent="1">
          <mxGeometry x="186" y="204" width="7" height="7" as="geometry" />
        </mxCell>
        <mxCell id="wruX1AdouDGclrCkDgOv-38" value="" style="rounded=0;whiteSpace=wrap;html=1;fillColor=#f5f5f5;fontColor=#333333;strokeColor=#666666;" vertex="1" parent="1">
          <mxGeometry x="116" y="214" width="7" height="7" as="geometry" />
        </mxCell>
        <mxCell id="wruX1AdouDGclrCkDgOv-39" value="" style="rounded=0;whiteSpace=wrap;html=1;fillColor=#f5f5f5;fontColor=#333333;strokeColor=#666666;" vertex="1" parent="1">
          <mxGeometry x="123" y="214" width="7" height="7" as="geometry" />
        </mxCell>
        <mxCell id="wruX1AdouDGclrCkDgOv-40" value="" style="rounded=0;whiteSpace=wrap;html=1;fillColor=#f5f5f5;fontColor=#333333;strokeColor=#666666;" vertex="1" parent="1">
          <mxGeometry x="130" y="214" width="7" height="7" as="geometry" />
        </mxCell>
        <mxCell id="wruX1AdouDGclrCkDgOv-41" value="" style="rounded=0;whiteSpace=wrap;html=1;fillColor=#f5f5f5;fontColor=#333333;strokeColor=#666666;" vertex="1" parent="1">
          <mxGeometry x="120" y="258" width="7" height="7" as="geometry" />
        </mxCell>
        <mxCell id="wruX1AdouDGclrCkDgOv-42" value="" style="rounded=0;whiteSpace=wrap;html=1;fillColor=#f5f5f5;fontColor=#333333;strokeColor=#666666;" vertex="1" parent="1">
          <mxGeometry x="127" y="258" width="7" height="7" as="geometry" />
        </mxCell>
        <mxCell id="wruX1AdouDGclrCkDgOv-43" value="" style="rounded=0;whiteSpace=wrap;html=1;fillColor=#f5f5f5;fontColor=#333333;strokeColor=#666666;" vertex="1" parent="1">
          <mxGeometry x="134" y="258" width="7" height="7" as="geometry" />
        </mxCell>
        <mxCell id="wruX1AdouDGclrCkDgOv-83" style="rounded=0;orthogonalLoop=1;jettySize=auto;html=1;exitX=0.5;exitY=0;exitDx=0;exitDy=0;entryX=0;entryY=1;entryDx=0;entryDy=0;endArrow=none;startFill=0;" edge="1" parent="1" source="wruX1AdouDGclrCkDgOv-85" target="wruX1AdouDGclrCkDgOv-96">
          <mxGeometry relative="1" as="geometry" />
        </mxCell>
        <mxCell id="wruX1AdouDGclrCkDgOv-84" style="edgeStyle=none;rounded=0;orthogonalLoop=1;jettySize=auto;html=1;exitX=1;exitY=1;exitDx=0;exitDy=0;entryX=0;entryY=0;entryDx=0;entryDy=0;endArrow=classic;startFill=0;endFill=1;" edge="1" parent="1" source="wruX1AdouDGclrCkDgOv-85" target="wruX1AdouDGclrCkDgOv-90">
          <mxGeometry relative="1" as="geometry" />
        </mxCell>
        <mxCell id="wruX1AdouDGclrCkDgOv-85" value="" style="ellipse;whiteSpace=wrap;html=1;aspect=fixed;fillColor=#f8cecc;strokeColor=#b85450;" vertex="1" parent="1">
          <mxGeometry x="323" y="183" width="20" height="20" as="geometry" />
        </mxCell>
        <mxCell id="wruX1AdouDGclrCkDgOv-86" style="edgeStyle=none;rounded=0;orthogonalLoop=1;jettySize=auto;html=1;exitX=1;exitY=1;exitDx=0;exitDy=0;endArrow=none;startFill=0;" edge="1" parent="1" source="wruX1AdouDGclrCkDgOv-87" target="wruX1AdouDGclrCkDgOv-91">
          <mxGeometry relative="1" as="geometry" />
        </mxCell>
        <mxCell id="wruX1AdouDGclrCkDgOv-87" value="" style="ellipse;whiteSpace=wrap;html=1;aspect=fixed;fillColor=#dae8fc;strokeColor=#6c8ebf;" vertex="1" parent="1">
          <mxGeometry x="383" y="183" width="20" height="20" as="geometry" />
        </mxCell>
        <mxCell id="wruX1AdouDGclrCkDgOv-90" value="" style="ellipse;whiteSpace=wrap;html=1;aspect=fixed;fillColor=#f8cecc;strokeColor=#b85450;" vertex="1" parent="1">
          <mxGeometry x="353" y="213" width="20" height="20" as="geometry" />
        </mxCell>
        <mxCell id="wruX1AdouDGclrCkDgOv-91" value="" style="ellipse;whiteSpace=wrap;html=1;aspect=fixed;fillColor=#dae8fc;strokeColor=#6c8ebf;" vertex="1" parent="1">
          <mxGeometry x="393" y="222" width="20" height="20" as="geometry" />
        </mxCell>
        <mxCell id="wruX1AdouDGclrCkDgOv-127" style="edgeStyle=none;rounded=0;orthogonalLoop=1;jettySize=auto;html=1;exitX=1;exitY=0;exitDx=0;exitDy=0;entryX=0.5;entryY=1;entryDx=0;entryDy=0;" edge="1" parent="1" source="wruX1AdouDGclrCkDgOv-92" target="wruX1AdouDGclrCkDgOv-90">
          <mxGeometry relative="1" as="geometry" />
        </mxCell>
        <mxCell id="wruX1AdouDGclrCkDgOv-92" value="" style="ellipse;whiteSpace=wrap;html=1;aspect=fixed;fillColor=#dae8fc;strokeColor=#6c8ebf;" vertex="1" parent="1">
          <mxGeometry x="323" y="257" width="20" height="20" as="geometry" />
        </mxCell>
        <mxCell id="wruX1AdouDGclrCkDgOv-125" style="rounded=0;orthogonalLoop=1;jettySize=auto;html=1;exitX=0.5;exitY=0;exitDx=0;exitDy=0;entryX=1;entryY=1;entryDx=0;entryDy=0;" edge="1" parent="1" source="wruX1AdouDGclrCkDgOv-93" target="wruX1AdouDGclrCkDgOv-90">
          <mxGeometry relative="1" as="geometry" />
        </mxCell>
        <mxCell id="wruX1AdouDGclrCkDgOv-93" value="" style="ellipse;whiteSpace=wrap;html=1;aspect=fixed;fillColor=#dae8fc;strokeColor=#6c8ebf;" vertex="1" parent="1">
          <mxGeometry x="373" y="259" width="20" height="20" as="geometry" />
        </mxCell>
        <mxCell id="wruX1AdouDGclrCkDgOv-94" value="" style="ellipse;whiteSpace=wrap;html=1;aspect=fixed;fillColor=#dae8fc;strokeColor=#6c8ebf;" vertex="1" parent="1">
          <mxGeometry x="303" y="222" width="20" height="20" as="geometry" />
        </mxCell>
        <mxCell id="wruX1AdouDGclrCkDgOv-95" style="rounded=0;orthogonalLoop=1;jettySize=auto;html=1;exitX=1;exitY=0.5;exitDx=0;exitDy=0;entryX=0.5;entryY=0;entryDx=0;entryDy=0;endArrow=none;startFill=0;" edge="1" parent="1" source="wruX1AdouDGclrCkDgOv-96" target="wruX1AdouDGclrCkDgOv-87">
          <mxGeometry relative="1" as="geometry" />
        </mxCell>
        <mxCell id="wruX1AdouDGclrCkDgOv-96" value="" style="ellipse;whiteSpace=wrap;html=1;aspect=fixed;fillColor=#f8cecc;strokeColor=#b85450;" vertex="1" parent="1">
          <mxGeometry x="353" y="153" width="20" height="20" as="geometry" />
        </mxCell>
        <mxCell id="wruX1AdouDGclrCkDgOv-97" style="edgeStyle=none;rounded=0;orthogonalLoop=1;jettySize=auto;html=1;exitX=0;exitY=1;exitDx=0;exitDy=0;entryX=0.83;entryY=0.072;entryDx=0;entryDy=0;entryPerimeter=0;endArrow=classic;startFill=0;endFill=1;" edge="1" parent="1" source="wruX1AdouDGclrCkDgOv-87" target="wruX1AdouDGclrCkDgOv-90">
          <mxGeometry relative="1" as="geometry" />
        </mxCell>
        <mxCell id="wruX1AdouDGclrCkDgOv-98" style="edgeStyle=none;rounded=0;orthogonalLoop=1;jettySize=auto;html=1;exitX=1;exitY=0;exitDx=0;exitDy=0;entryX=0.294;entryY=0.932;entryDx=0;entryDy=0;entryPerimeter=0;endArrow=none;startFill=0;" edge="1" parent="1" source="wruX1AdouDGclrCkDgOv-93" target="wruX1AdouDGclrCkDgOv-91">
          <mxGeometry relative="1" as="geometry" />
        </mxCell>
        <mxCell id="wruX1AdouDGclrCkDgOv-99" style="edgeStyle=none;rounded=0;orthogonalLoop=1;jettySize=auto;html=1;exitX=1;exitY=0;exitDx=0;exitDy=0;entryX=0.279;entryY=1.022;entryDx=0;entryDy=0;entryPerimeter=0;endArrow=none;startFill=0;" edge="1" parent="1" source="wruX1AdouDGclrCkDgOv-94" target="wruX1AdouDGclrCkDgOv-85">
          <mxGeometry relative="1" as="geometry" />
        </mxCell>
        <mxCell id="wruX1AdouDGclrCkDgOv-100" style="edgeStyle=none;rounded=0;orthogonalLoop=1;jettySize=auto;html=1;exitX=1;exitY=1;exitDx=0;exitDy=0;endArrow=none;startFill=0;entryX=0.5;entryY=0;entryDx=0;entryDy=0;" edge="1" parent="1" source="wruX1AdouDGclrCkDgOv-94" target="wruX1AdouDGclrCkDgOv-92">
          <mxGeometry relative="1" as="geometry">
            <mxPoint x="330" y="259" as="targetPoint" />
          </mxGeometry>
        </mxCell>
        <mxCell id="wruX1AdouDGclrCkDgOv-101" value="" style="rounded=0;whiteSpace=wrap;html=1;fillColor=#f5f5f5;fontColor=#333333;strokeColor=#666666;" vertex="1" parent="1">
          <mxGeometry x="353" y="142" width="7" height="7" as="geometry" />
        </mxCell>
        <mxCell id="wruX1AdouDGclrCkDgOv-102" value="" style="rounded=0;whiteSpace=wrap;html=1;fillColor=#f5f5f5;fontColor=#333333;strokeColor=#666666;" vertex="1" parent="1">
          <mxGeometry x="360" y="142" width="7" height="7" as="geometry" />
        </mxCell>
        <mxCell id="wruX1AdouDGclrCkDgOv-103" value="" style="rounded=0;whiteSpace=wrap;html=1;fillColor=#f5f5f5;fontColor=#333333;strokeColor=#666666;" vertex="1" parent="1">
          <mxGeometry x="367" y="142" width="7" height="7" as="geometry" />
        </mxCell>
        <mxCell id="wruX1AdouDGclrCkDgOv-104" value="" style="rounded=0;whiteSpace=wrap;html=1;fillColor=#f5f5f5;fontColor=#333333;strokeColor=#666666;" vertex="1" parent="1">
          <mxGeometry x="395" y="174" width="7" height="7" as="geometry" />
        </mxCell>
        <mxCell id="wruX1AdouDGclrCkDgOv-105" value="" style="rounded=0;whiteSpace=wrap;html=1;fillColor=#f5f5f5;fontColor=#333333;strokeColor=#666666;" vertex="1" parent="1">
          <mxGeometry x="402" y="174" width="7" height="7" as="geometry" />
        </mxCell>
        <mxCell id="wruX1AdouDGclrCkDgOv-106" value="" style="rounded=0;whiteSpace=wrap;html=1;fillColor=#f5f5f5;fontColor=#333333;strokeColor=#666666;" vertex="1" parent="1">
          <mxGeometry x="409" y="174" width="7" height="7" as="geometry" />
        </mxCell>
        <mxCell id="wruX1AdouDGclrCkDgOv-107" value="" style="rounded=0;whiteSpace=wrap;html=1;fillColor=#f5f5f5;fontColor=#333333;strokeColor=#666666;" vertex="1" parent="1">
          <mxGeometry x="407" y="243" width="7" height="7" as="geometry" />
        </mxCell>
        <mxCell id="wruX1AdouDGclrCkDgOv-108" value="" style="rounded=0;whiteSpace=wrap;html=1;fillColor=#f5f5f5;fontColor=#333333;strokeColor=#666666;" vertex="1" parent="1">
          <mxGeometry x="414" y="243" width="7" height="7" as="geometry" />
        </mxCell>
        <mxCell id="wruX1AdouDGclrCkDgOv-109" value="" style="rounded=0;whiteSpace=wrap;html=1;fillColor=#f5f5f5;fontColor=#333333;strokeColor=#666666;" vertex="1" parent="1">
          <mxGeometry x="421" y="243" width="7" height="7" as="geometry" />
        </mxCell>
        <mxCell id="wruX1AdouDGclrCkDgOv-110" value="" style="rounded=0;whiteSpace=wrap;html=1;fillColor=#f5f5f5;fontColor=#333333;strokeColor=#666666;" vertex="1" parent="1">
          <mxGeometry x="395" y="277" width="7" height="7" as="geometry" />
        </mxCell>
        <mxCell id="wruX1AdouDGclrCkDgOv-111" value="" style="rounded=0;whiteSpace=wrap;html=1;fillColor=#f5f5f5;fontColor=#333333;strokeColor=#666666;" vertex="1" parent="1">
          <mxGeometry x="402" y="277" width="7" height="7" as="geometry" />
        </mxCell>
        <mxCell id="wruX1AdouDGclrCkDgOv-112" value="" style="rounded=0;whiteSpace=wrap;html=1;fillColor=#f5f5f5;fontColor=#333333;strokeColor=#666666;" vertex="1" parent="1">
          <mxGeometry x="409" y="277" width="7" height="7" as="geometry" />
        </mxCell>
        <mxCell id="wruX1AdouDGclrCkDgOv-113" value="" style="rounded=0;whiteSpace=wrap;html=1;fillColor=#f5f5f5;fontColor=#333333;strokeColor=#666666;" vertex="1" parent="1">
          <mxGeometry x="303" y="176" width="7" height="7" as="geometry" />
        </mxCell>
        <mxCell id="wruX1AdouDGclrCkDgOv-114" value="" style="rounded=0;whiteSpace=wrap;html=1;fillColor=#f5f5f5;fontColor=#333333;strokeColor=#666666;" vertex="1" parent="1">
          <mxGeometry x="310" y="176" width="7" height="7" as="geometry" />
        </mxCell>
        <mxCell id="wruX1AdouDGclrCkDgOv-115" value="" style="rounded=0;whiteSpace=wrap;html=1;fillColor=#f5f5f5;fontColor=#333333;strokeColor=#666666;" vertex="1" parent="1">
          <mxGeometry x="317" y="176" width="7" height="7" as="geometry" />
        </mxCell>
        <mxCell id="wruX1AdouDGclrCkDgOv-116" value="" style="rounded=0;whiteSpace=wrap;html=1;fillColor=#f5f5f5;fontColor=#333333;strokeColor=#666666;" vertex="1" parent="1">
          <mxGeometry x="352" y="203" width="7" height="7" as="geometry" />
        </mxCell>
        <mxCell id="wruX1AdouDGclrCkDgOv-117" value="" style="rounded=0;whiteSpace=wrap;html=1;fillColor=#f5f5f5;fontColor=#333333;strokeColor=#666666;" vertex="1" parent="1">
          <mxGeometry x="359" y="203" width="7" height="7" as="geometry" />
        </mxCell>
        <mxCell id="wruX1AdouDGclrCkDgOv-118" value="" style="rounded=0;whiteSpace=wrap;html=1;fillColor=#f5f5f5;fontColor=#333333;strokeColor=#666666;" vertex="1" parent="1">
          <mxGeometry x="366" y="203" width="7" height="7" as="geometry" />
        </mxCell>
        <mxCell id="wruX1AdouDGclrCkDgOv-119" value="" style="rounded=0;whiteSpace=wrap;html=1;fillColor=#f5f5f5;fontColor=#333333;strokeColor=#666666;" vertex="1" parent="1">
          <mxGeometry x="296" y="213" width="7" height="7" as="geometry" />
        </mxCell>
        <mxCell id="wruX1AdouDGclrCkDgOv-120" value="" style="rounded=0;whiteSpace=wrap;html=1;fillColor=#f5f5f5;fontColor=#333333;strokeColor=#666666;" vertex="1" parent="1">
          <mxGeometry x="303" y="213" width="7" height="7" as="geometry" />
        </mxCell>
        <mxCell id="wruX1AdouDGclrCkDgOv-121" value="" style="rounded=0;whiteSpace=wrap;html=1;fillColor=#f5f5f5;fontColor=#333333;strokeColor=#666666;" vertex="1" parent="1">
          <mxGeometry x="310" y="213" width="7" height="7" as="geometry" />
        </mxCell>
        <mxCell id="wruX1AdouDGclrCkDgOv-122" value="" style="rounded=0;whiteSpace=wrap;html=1;fillColor=#f5f5f5;fontColor=#333333;strokeColor=#666666;" vertex="1" parent="1">
          <mxGeometry x="300" y="257" width="7" height="7" as="geometry" />
        </mxCell>
        <mxCell id="wruX1AdouDGclrCkDgOv-123" value="" style="rounded=0;whiteSpace=wrap;html=1;fillColor=#f5f5f5;fontColor=#333333;strokeColor=#666666;" vertex="1" parent="1">
          <mxGeometry x="307" y="257" width="7" height="7" as="geometry" />
        </mxCell>
        <mxCell id="wruX1AdouDGclrCkDgOv-124" value="" style="rounded=0;whiteSpace=wrap;html=1;fillColor=#f5f5f5;fontColor=#333333;strokeColor=#666666;" vertex="1" parent="1">
          <mxGeometry x="314" y="257" width="7" height="7" as="geometry" />
        </mxCell>
        <mxCell id="wruX1AdouDGclrCkDgOv-128" value="消息聚合" style="text;html=1;align=center;verticalAlign=middle;resizable=0;points=[];autosize=1;strokeColor=none;fillColor=none;fontSize=10;" vertex="1" parent="1">
          <mxGeometry x="326.5" y="281" width="60" height="30" as="geometry" />
        </mxCell>
        <mxCell id="wruX1AdouDGclrCkDgOv-129" style="rounded=0;orthogonalLoop=1;jettySize=auto;html=1;exitX=0.5;exitY=0;exitDx=0;exitDy=0;entryX=0;entryY=1;entryDx=0;entryDy=0;endArrow=none;startFill=0;" edge="1" parent="1" source="wruX1AdouDGclrCkDgOv-131" target="wruX1AdouDGclrCkDgOv-142">
          <mxGeometry relative="1" as="geometry" />
        </mxCell>
        <mxCell id="wruX1AdouDGclrCkDgOv-130" style="edgeStyle=none;rounded=0;orthogonalLoop=1;jettySize=auto;html=1;exitX=1;exitY=1;exitDx=0;exitDy=0;entryX=0;entryY=0;entryDx=0;entryDy=0;endArrow=classic;startFill=0;endFill=1;" edge="1" parent="1" source="wruX1AdouDGclrCkDgOv-131" target="wruX1AdouDGclrCkDgOv-134">
          <mxGeometry relative="1" as="geometry" />
        </mxCell>
        <mxCell id="wruX1AdouDGclrCkDgOv-131" value="" style="ellipse;whiteSpace=wrap;html=1;aspect=fixed;fillColor=#f8cecc;strokeColor=#b85450;" vertex="1" parent="1">
          <mxGeometry x="507" y="184" width="20" height="20" as="geometry" />
        </mxCell>
        <mxCell id="wruX1AdouDGclrCkDgOv-132" style="edgeStyle=none;rounded=0;orthogonalLoop=1;jettySize=auto;html=1;exitX=1;exitY=1;exitDx=0;exitDy=0;endArrow=none;startFill=0;" edge="1" parent="1" source="wruX1AdouDGclrCkDgOv-133" target="wruX1AdouDGclrCkDgOv-135">
          <mxGeometry relative="1" as="geometry" />
        </mxCell>
        <mxCell id="wruX1AdouDGclrCkDgOv-133" value="" style="ellipse;whiteSpace=wrap;html=1;aspect=fixed;fillColor=#dae8fc;strokeColor=#6c8ebf;" vertex="1" parent="1">
          <mxGeometry x="567" y="184" width="20" height="20" as="geometry" />
        </mxCell>
        <mxCell id="wruX1AdouDGclrCkDgOv-134" value="" style="ellipse;whiteSpace=wrap;html=1;aspect=fixed;fillColor=#f8cecc;strokeColor=#b85450;" vertex="1" parent="1">
          <mxGeometry x="537" y="214" width="20" height="20" as="geometry" />
        </mxCell>
        <mxCell id="wruX1AdouDGclrCkDgOv-135" value="" style="ellipse;whiteSpace=wrap;html=1;aspect=fixed;fillColor=#dae8fc;strokeColor=#6c8ebf;" vertex="1" parent="1">
          <mxGeometry x="577" y="223" width="20" height="20" as="geometry" />
        </mxCell>
        <mxCell id="wruX1AdouDGclrCkDgOv-136" style="edgeStyle=none;rounded=0;orthogonalLoop=1;jettySize=auto;html=1;exitX=1;exitY=0;exitDx=0;exitDy=0;entryX=0.5;entryY=1;entryDx=0;entryDy=0;" edge="1" parent="1" source="wruX1AdouDGclrCkDgOv-137" target="wruX1AdouDGclrCkDgOv-134">
          <mxGeometry relative="1" as="geometry" />
        </mxCell>
        <mxCell id="wruX1AdouDGclrCkDgOv-137" value="" style="ellipse;whiteSpace=wrap;html=1;aspect=fixed;fillColor=#dae8fc;strokeColor=#6c8ebf;" vertex="1" parent="1">
          <mxGeometry x="507" y="258" width="20" height="20" as="geometry" />
        </mxCell>
        <mxCell id="wruX1AdouDGclrCkDgOv-138" style="rounded=0;orthogonalLoop=1;jettySize=auto;html=1;exitX=0.5;exitY=0;exitDx=0;exitDy=0;entryX=1;entryY=1;entryDx=0;entryDy=0;" edge="1" parent="1" source="wruX1AdouDGclrCkDgOv-139" target="wruX1AdouDGclrCkDgOv-134">
          <mxGeometry relative="1" as="geometry" />
        </mxCell>
        <mxCell id="wruX1AdouDGclrCkDgOv-139" value="" style="ellipse;whiteSpace=wrap;html=1;aspect=fixed;fillColor=#dae8fc;strokeColor=#6c8ebf;" vertex="1" parent="1">
          <mxGeometry x="557" y="260" width="20" height="20" as="geometry" />
        </mxCell>
        <mxCell id="wruX1AdouDGclrCkDgOv-140" value="" style="ellipse;whiteSpace=wrap;html=1;aspect=fixed;fillColor=#dae8fc;strokeColor=#6c8ebf;" vertex="1" parent="1">
          <mxGeometry x="487" y="223" width="20" height="20" as="geometry" />
        </mxCell>
        <mxCell id="wruX1AdouDGclrCkDgOv-141" style="rounded=0;orthogonalLoop=1;jettySize=auto;html=1;exitX=1;exitY=0.5;exitDx=0;exitDy=0;entryX=0.5;entryY=0;entryDx=0;entryDy=0;endArrow=none;startFill=0;" edge="1" parent="1" source="wruX1AdouDGclrCkDgOv-142" target="wruX1AdouDGclrCkDgOv-133">
          <mxGeometry relative="1" as="geometry" />
        </mxCell>
        <mxCell id="wruX1AdouDGclrCkDgOv-142" value="" style="ellipse;whiteSpace=wrap;html=1;aspect=fixed;fillColor=#f8cecc;strokeColor=#b85450;" vertex="1" parent="1">
          <mxGeometry x="537" y="154" width="20" height="20" as="geometry" />
        </mxCell>
        <mxCell id="wruX1AdouDGclrCkDgOv-143" style="edgeStyle=none;rounded=0;orthogonalLoop=1;jettySize=auto;html=1;exitX=0;exitY=1;exitDx=0;exitDy=0;entryX=0.83;entryY=0.072;entryDx=0;entryDy=0;entryPerimeter=0;endArrow=classic;startFill=0;endFill=1;" edge="1" parent="1" source="wruX1AdouDGclrCkDgOv-133" target="wruX1AdouDGclrCkDgOv-134">
          <mxGeometry relative="1" as="geometry" />
        </mxCell>
        <mxCell id="wruX1AdouDGclrCkDgOv-144" style="edgeStyle=none;rounded=0;orthogonalLoop=1;jettySize=auto;html=1;exitX=1;exitY=0;exitDx=0;exitDy=0;entryX=0.294;entryY=0.932;entryDx=0;entryDy=0;entryPerimeter=0;endArrow=none;startFill=0;" edge="1" parent="1" source="wruX1AdouDGclrCkDgOv-139" target="wruX1AdouDGclrCkDgOv-135">
          <mxGeometry relative="1" as="geometry" />
        </mxCell>
        <mxCell id="wruX1AdouDGclrCkDgOv-145" style="edgeStyle=none;rounded=0;orthogonalLoop=1;jettySize=auto;html=1;exitX=1;exitY=0;exitDx=0;exitDy=0;entryX=0.279;entryY=1.022;entryDx=0;entryDy=0;entryPerimeter=0;endArrow=none;startFill=0;" edge="1" parent="1" source="wruX1AdouDGclrCkDgOv-140" target="wruX1AdouDGclrCkDgOv-131">
          <mxGeometry relative="1" as="geometry" />
        </mxCell>
        <mxCell id="wruX1AdouDGclrCkDgOv-146" style="edgeStyle=none;rounded=0;orthogonalLoop=1;jettySize=auto;html=1;exitX=1;exitY=1;exitDx=0;exitDy=0;endArrow=none;startFill=0;entryX=0.5;entryY=0;entryDx=0;entryDy=0;" edge="1" parent="1" source="wruX1AdouDGclrCkDgOv-140" target="wruX1AdouDGclrCkDgOv-137">
          <mxGeometry relative="1" as="geometry">
            <mxPoint x="514" y="260" as="targetPoint" />
          </mxGeometry>
        </mxCell>
        <mxCell id="wruX1AdouDGclrCkDgOv-147" value="" style="rounded=0;whiteSpace=wrap;html=1;fillColor=#f5f5f5;fontColor=#333333;strokeColor=#666666;" vertex="1" parent="1">
          <mxGeometry x="537" y="143" width="7" height="7" as="geometry" />
        </mxCell>
        <mxCell id="wruX1AdouDGclrCkDgOv-148" value="" style="rounded=0;whiteSpace=wrap;html=1;fillColor=#f5f5f5;fontColor=#333333;strokeColor=#666666;" vertex="1" parent="1">
          <mxGeometry x="544" y="143" width="7" height="7" as="geometry" />
        </mxCell>
        <mxCell id="wruX1AdouDGclrCkDgOv-149" value="" style="rounded=0;whiteSpace=wrap;html=1;fillColor=#f5f5f5;fontColor=#333333;strokeColor=#666666;" vertex="1" parent="1">
          <mxGeometry x="551" y="143" width="7" height="7" as="geometry" />
        </mxCell>
        <mxCell id="wruX1AdouDGclrCkDgOv-150" value="" style="rounded=0;whiteSpace=wrap;html=1;fillColor=#f5f5f5;fontColor=#333333;strokeColor=#666666;" vertex="1" parent="1">
          <mxGeometry x="579" y="175" width="7" height="7" as="geometry" />
        </mxCell>
        <mxCell id="wruX1AdouDGclrCkDgOv-151" value="" style="rounded=0;whiteSpace=wrap;html=1;fillColor=#f5f5f5;fontColor=#333333;strokeColor=#666666;" vertex="1" parent="1">
          <mxGeometry x="586" y="175" width="7" height="7" as="geometry" />
        </mxCell>
        <mxCell id="wruX1AdouDGclrCkDgOv-152" value="" style="rounded=0;whiteSpace=wrap;html=1;fillColor=#f5f5f5;fontColor=#333333;strokeColor=#666666;" vertex="1" parent="1">
          <mxGeometry x="593" y="175" width="7" height="7" as="geometry" />
        </mxCell>
        <mxCell id="wruX1AdouDGclrCkDgOv-153" value="" style="rounded=0;whiteSpace=wrap;html=1;fillColor=#f5f5f5;fontColor=#333333;strokeColor=#666666;" vertex="1" parent="1">
          <mxGeometry x="591" y="244" width="7" height="7" as="geometry" />
        </mxCell>
        <mxCell id="wruX1AdouDGclrCkDgOv-154" value="" style="rounded=0;whiteSpace=wrap;html=1;fillColor=#f5f5f5;fontColor=#333333;strokeColor=#666666;" vertex="1" parent="1">
          <mxGeometry x="598" y="244" width="7" height="7" as="geometry" />
        </mxCell>
        <mxCell id="wruX1AdouDGclrCkDgOv-155" value="" style="rounded=0;whiteSpace=wrap;html=1;fillColor=#f5f5f5;fontColor=#333333;strokeColor=#666666;" vertex="1" parent="1">
          <mxGeometry x="605" y="244" width="7" height="7" as="geometry" />
        </mxCell>
        <mxCell id="wruX1AdouDGclrCkDgOv-156" value="" style="rounded=0;whiteSpace=wrap;html=1;fillColor=#f5f5f5;fontColor=#333333;strokeColor=#666666;" vertex="1" parent="1">
          <mxGeometry x="579" y="278" width="7" height="7" as="geometry" />
        </mxCell>
        <mxCell id="wruX1AdouDGclrCkDgOv-157" value="" style="rounded=0;whiteSpace=wrap;html=1;fillColor=#f5f5f5;fontColor=#333333;strokeColor=#666666;" vertex="1" parent="1">
          <mxGeometry x="586" y="278" width="7" height="7" as="geometry" />
        </mxCell>
        <mxCell id="wruX1AdouDGclrCkDgOv-158" value="" style="rounded=0;whiteSpace=wrap;html=1;fillColor=#f5f5f5;fontColor=#333333;strokeColor=#666666;" vertex="1" parent="1">
          <mxGeometry x="593" y="278" width="7" height="7" as="geometry" />
        </mxCell>
        <mxCell id="wruX1AdouDGclrCkDgOv-159" value="" style="rounded=0;whiteSpace=wrap;html=1;fillColor=#f5f5f5;fontColor=#333333;strokeColor=#666666;" vertex="1" parent="1">
          <mxGeometry x="487" y="177" width="7" height="7" as="geometry" />
        </mxCell>
        <mxCell id="wruX1AdouDGclrCkDgOv-160" value="" style="rounded=0;whiteSpace=wrap;html=1;fillColor=#f5f5f5;fontColor=#333333;strokeColor=#666666;" vertex="1" parent="1">
          <mxGeometry x="494" y="177" width="7" height="7" as="geometry" />
        </mxCell>
        <mxCell id="wruX1AdouDGclrCkDgOv-161" value="" style="rounded=0;whiteSpace=wrap;html=1;fillColor=#f5f5f5;fontColor=#333333;strokeColor=#666666;" vertex="1" parent="1">
          <mxGeometry x="501" y="177" width="7" height="7" as="geometry" />
        </mxCell>
        <mxCell id="wruX1AdouDGclrCkDgOv-162" value="" style="rounded=0;whiteSpace=wrap;html=1;fillColor=#f8cecc;strokeColor=#b85450;" vertex="1" parent="1">
          <mxGeometry x="536" y="204" width="7" height="7" as="geometry" />
        </mxCell>
        <mxCell id="wruX1AdouDGclrCkDgOv-163" value="" style="rounded=0;whiteSpace=wrap;html=1;fillColor=#f5f5f5;fontColor=#333333;strokeColor=#666666;" vertex="1" parent="1">
          <mxGeometry x="543" y="204" width="7" height="7" as="geometry" />
        </mxCell>
        <mxCell id="wruX1AdouDGclrCkDgOv-164" value="" style="rounded=0;whiteSpace=wrap;html=1;fillColor=#dae8fc;strokeColor=#6c8ebf;" vertex="1" parent="1">
          <mxGeometry x="550" y="204" width="7" height="7" as="geometry" />
        </mxCell>
        <mxCell id="wruX1AdouDGclrCkDgOv-165" value="" style="rounded=0;whiteSpace=wrap;html=1;fillColor=#f5f5f5;fontColor=#333333;strokeColor=#666666;" vertex="1" parent="1">
          <mxGeometry x="480" y="214" width="7" height="7" as="geometry" />
        </mxCell>
        <mxCell id="wruX1AdouDGclrCkDgOv-166" value="" style="rounded=0;whiteSpace=wrap;html=1;fillColor=#f5f5f5;fontColor=#333333;strokeColor=#666666;" vertex="1" parent="1">
          <mxGeometry x="487" y="214" width="7" height="7" as="geometry" />
        </mxCell>
        <mxCell id="wruX1AdouDGclrCkDgOv-167" value="" style="rounded=0;whiteSpace=wrap;html=1;fillColor=#f5f5f5;fontColor=#333333;strokeColor=#666666;" vertex="1" parent="1">
          <mxGeometry x="494" y="214" width="7" height="7" as="geometry" />
        </mxCell>
        <mxCell id="wruX1AdouDGclrCkDgOv-168" value="" style="rounded=0;whiteSpace=wrap;html=1;fillColor=#f5f5f5;fontColor=#333333;strokeColor=#666666;" vertex="1" parent="1">
          <mxGeometry x="484" y="258" width="7" height="7" as="geometry" />
        </mxCell>
        <mxCell id="wruX1AdouDGclrCkDgOv-169" value="" style="rounded=0;whiteSpace=wrap;html=1;fillColor=#f5f5f5;fontColor=#333333;strokeColor=#666666;" vertex="1" parent="1">
          <mxGeometry x="491" y="258" width="7" height="7" as="geometry" />
        </mxCell>
        <mxCell id="wruX1AdouDGclrCkDgOv-170" value="" style="rounded=0;whiteSpace=wrap;html=1;fillColor=#f5f5f5;fontColor=#333333;strokeColor=#666666;" vertex="1" parent="1">
          <mxGeometry x="498" y="258" width="7" height="7" as="geometry" />
        </mxCell>
        <mxCell id="wruX1AdouDGclrCkDgOv-171" value="消息聚合" style="text;html=1;align=center;verticalAlign=middle;resizable=0;points=[];autosize=1;strokeColor=none;fillColor=none;fontSize=10;" vertex="1" parent="1">
          <mxGeometry x="510.5" y="282" width="60" height="30" as="geometry" />
        </mxCell>
        <mxCell id="wruX1AdouDGclrCkDgOv-172" value="" style="html=1;shadow=0;dashed=0;align=center;verticalAlign=middle;shape=mxgraph.arrows2.arrow;dy=0.56;dx=15.16;notch=0;" vertex="1" parent="1">
          <mxGeometry x="253" y="221" width="33" height="14" as="geometry" />
        </mxCell>
        <mxCell id="wruX1AdouDGclrCkDgOv-173" value="" style="html=1;shadow=0;dashed=0;align=center;verticalAlign=middle;shape=mxgraph.arrows2.arrow;dy=0.56;dx=15.16;notch=0;" vertex="1" parent="1">
          <mxGeometry x="432" y="218" width="33" height="14" as="geometry" />
        </mxCell>
      </root>
    </mxGraphModel>
  </diagram>
</mxfile>
